<?xml version="1.0" encoding="UTF-8"?>
<svg width="555.86465px" height="110.803281px" viewBox="0 0 555.86465 110.803281" version="1.1" xmlns="http://www.w3.org/2000/svg" xmlns:xlink="http://www.w3.org/1999/xlink">
    <title>形状结合</title>
    <g id="页面-1" stroke="none" stroke-width="1" fill="none" fill-rule="evenodd">
        <g id="编组-3备份-2" transform="translate(-302.000000, -94.000000)" fill="#131415" fill-rule="nonzero">
            <path d="M375.052051,156.943827 L409.960865,204.803281 L382.591052,204.803281 L360.879736,174.995228 L375.052051,156.943827 Z M329.330879,94.2279037 L356.739623,131.802062 L370.405062,150.572875 L330.849261,204.803281 L303.518382,204.803281 L343.074185,150.572875 L302,94.2279037 L329.330879,94.2279037 Z M411.479247,94.2279037 L375.367635,143.765289 L361.578709,125.15881 L384.109437,94.2279037 L411.479247,94.2279037 Z M438.57953,203.911209 L438.57953,124 L419.307562,124 L419.307562,203.911209 L438.57953,203.911209 Z M438.57953,114 L438.57953,94 L419.307562,94 L419.307562,114 L438.57953,114 Z M483.978051,123.98394 C477.51552,123.98394 471.435214,125.650966 466.138636,128.570667 L466.138636,123.829763 L446.866668,123.829763 L446.866668,203.795576 L466.138636,203.795576 L466.138636,161.095322 C466.138636,151.260195 474.142927,143.255905 483.978053,143.255905 C493.816394,143.255905 501.820684,151.260195 501.820684,161.095322 L501.820684,203.795576 L521.092652,203.795576 L521.092652,161.095322 C521.092652,140.631705 504.441673,123.983937 483.978056,123.983937 L483.978051,123.98394 Z M583.979937,177.544481 C580.089022,182.426134 574.138136,185.39755 567.77338,185.39755 C556.337661,185.39755 547.033677,176.046224 547.033677,164.555709 C547.033677,153.065194 556.337661,143.713869 567.77338,143.713869 C574.466941,143.713869 580.737792,147.024028 584.603064,152.38653 C597.922705,139.791026 584.603064,152.38653 597.839321,139.791026 C590.095458,130.816322 580.373377,125.377939 567.77338,125.377939 C544.963833,125.377939 528.403998,142.952927 528.403998,164.555707 C528.403998,186.158488 544.960393,203.733475 567.77338,203.733475 C580.447845,203.733475 590.188416,198.264868 597.922705,189.230715 C583.979937,177.544481 597.922705,189.230715 583.979937,177.544481 Z M626.253879,133.453311 L626.253879,101.613462 L609.318664,101.613462 L609.318664,202.557098 L626.253879,202.557098 L626.253879,162.034308 C626.253879,153.391703 633.287639,146.357943 641.933067,146.357943 C650.575672,146.357943 657.609431,153.391703 657.609431,162.034308 L657.609431,202.557098 L674.544647,202.557098 L674.544647,162.034308 C674.544647,144.051932 659.915443,129.422728 641.933067,129.422728 C636.251303,129.42273 630.911064,130.890449 626.253879,133.453311 Z M756.606509,128.769746 L737.902287,128.769746 L737.902287,137.002205 C733.175102,130.917739 726.30567,129.376871 719.668788,129.376871 C699.281186,129.376871 684.45333,145.203309 684.45333,164.651995 C684.45333,184.128546 699.281186,199.954984 719.668788,199.954984 C726.308786,199.954984 732.543526,198.283177 737.902285,195.32965 L737.902285,200.138584 L756.606509,200.138584 C756.606509,200.130225 756.606509,164.657567 756.606509,164.649208 C756.606509,164.640849 756.606509,164.638063 756.606509,164.629705 L756.606509,128.769746 Z M737.902285,164.682647 C737.886698,174.922464 729.694249,183.236918 719.668785,183.236918 C709.599679,183.236918 701.400997,174.905746 701.400997,164.651997 C701.400997,154.426113 709.599679,146.094943 719.668785,146.094943 C729.697365,146.094943 737.886696,154.409397 737.902285,164.62135 L737.902285,164.682647 Z M783.271968,200.706007 L783.271968,128.794797 L765,128.794797 L765,200.706007 L783.271968,200.706007 Z M783,119.794797 L783,101.794797 L765,101.794797 L765,119.794797 L783,119.794797 Z M808.833521,136.059697 L808.833521,131.829763 L791.638666,131.829763 L791.638666,199.176943 L808.833521,199.176943 L808.833521,165.078879 C808.833521,156.303772 815.975118,149.162175 824.750225,149.162175 C833.528199,149.162175 840.669795,156.303772 840.669795,165.078879 L840.669795,199.176943 L857.86465,199.176943 L857.86465,165.078879 C857.86465,146.820809 843.008296,131.967321 824.750227,131.967321 C818.984216,131.967323 813.559239,133.454679 808.833521,136.059697 Z" id="形状结合"></path>
        </g>
    </g>
</svg>